<svg xmlns="http://www.w3.org/2000/svg" xmlns:xlink="http://www.w3.org/1999/xlink" fill="none" version="1.1"
     width="65.00001525878906" height="78" viewBox="0 0 65.00001525878906 78">
    <g>
        <g>
            <path d="M42.66792021484375,71.0836Q41.14352021484375,71.5751,39.59082021484375,72.0988Q38.76252021484375,72.3804,37.65342021484375,72.6077Q36.76612021484375,72.788,35.70902021484375,73.072Q35.58392021484375,73.1066,35.54382021484375,73.2351L35.45652021484375,73.5241Q35.39982021484375,73.7093,35.253520214843746,73.5883C35.10492021484375,73.4697,34.944420214843745,73.4524,34.76272021484375,73.4598Q32.33452021484375,73.5463,29.90162021484375,73.4747Q29.77892021484375,73.4722,29.68212021484375,73.3981C29.13942021484375,72.9955,28.47392021484375,72.9288,27.83212021484375,72.8102Q27.25162021484375,72.704,26.65692021484375,72.5187Q24.64172021484375,71.8814,22.63822021484375,71.2096Q22.47072021484375,71.1527,22.31022021484375,71.1552Q22.33852021484375,71.1206,22.32912021484375,71.0687Q22.31502021484375,70.9947,22.24892021484375,70.965Q18.96172021484375,69.6015,17.151820214843752,68.5344Q10.02061021484375,64.3278,6.27566021484375,56.8137Q4.55539021484375,53.3579,3.96545321484375,50.0084C3.02390921484375,44.6631,3.0073892148437498,38.8879,6.45972021484375,34.4812Q7.64197021484375,32.9695,9.034230214843749,31.7493C9.095330214843749,31.6966,9.11557021484375,31.6078,9.083780214843749,31.5319Q6.19071021484375,24.5736,7.54757021484375,17.1632C7.84019021484375,15.5601,8.48204021484375,13.6976,8.96343021484375,12.0253C9.23245021484375,11.0842,8.98939021484375,9.79231,8.55991021484375,8.79191C7.88974021484375,7.22338,7.33519021484375,5.62274,7.68916021484375,3.93811Q8.01245021484375,2.38934,9.43303021484375,2.19173Q9.879020214843749,2.12998,10.25422021484375,2.49062Q12.80749021484375,4.95581,16.222020214843752,5.26704C17.14472021484375,5.35102,18.30812021484375,4.39261,19.09862021484375,3.91588Q24.23342021484375,0.813398,30.09512021484375,0.148933C36.05592021484375,-0.52788,41.45742021484375,1.13698,46.67712021484375,4.43213C47.75082021484375,5.11142,48.88352021484375,5.42018,50.08702021484375,5.14106Q52.67102021484375,4.54576,54.73342021484375,2.62153C55.36342021484375,2.03117,56.10682021484375,1.85826,56.74152021484375,2.50791C58.34852021484375,4.14066,57.29842021484375,6.96649,56.47962021484375,8.7178C55.84252021484375,10.0788,55.94872021484375,11.6449,56.35932021484375,13.0455C57.07192021484375,15.4835,57.79402021484375,17.9215,57.90022021484375,20.4781Q58.13852021484375,26.2261,55.94162021484375,31.3047Q55.88022021484375,31.4479,55.99112021484375,31.5517Q56.99882021484375,32.4804,57.85062021484375,33.4882C60.20802021484375,36.282,61.52242021484375,40.3873,61.58852021484375,44.0381C61.78202021484375,54.8944,55.54512021484375,64.3945,46.46712021484375,69.2656Q45.93622021484375,69.5521,44.56522021484375,70.1672Q43.61182021484375,70.5945,42.66792021484375,71.0836ZM28.10112021484375,27.9453Q29.86862021484375,30.4253,31.57942021484375,32.8806Q31.98292021484375,33.4561,32.45012021484375,33.881Q32.603520214843755,34.0193,32.764020214843754,33.8933Q33.16752021484375,33.5747,33.46962021484375,33.1597Q35.29602021484375,30.6402,37.10122021484375,28.1108Q38.45102021484375,28.8197,39.68522021484375,29.1532C42.78352021484375,29.9955,45.64832021484375,28.7802,47.83582021484375,26.5101C50.46932021484375,23.7782,51.07342021484375,19.5246,49.17382021484375,16.2097C46.42232021484375,11.4078,40.85562021484375,9.89112,36.45942021484375,13.248Q33.700820214843745,15.355,32.54452021484375,18.6625C32.536720214843754,18.6834,32.51752021484375,18.6971,32.49612021484375,18.6971C32.474820214843746,18.6971,32.45562021484375,18.6834,32.447820214843745,18.6625Q31.52512021484375,15.9306,29.39422021484375,13.8705C26.82212021484375,11.3831,22.63592021484375,10.6025,19.56822021484375,12.4403C15.88222021484375,14.6486,13.91662021484375,19.2233,15.56372021484375,23.4818C16.958320214843752,27.0906,20.30212021484375,29.6719,24.09892021484375,29.3878Q26.25102021484375,29.2273,28.10112021484375,27.9453ZM35.17092021484375,68.653Q38.20092021484375,67.8156,40.45452021484375,66.0939C43.35222021484375,63.8782,44.94982021484375,60.22,45.26602021484375,56.4036Q45.73802021484375,50.752,42.20072021484375,46.5651Q40.57482021484375,44.6384,38.49592021484375,43.5071Q33.266620214843755,40.659,27.77072021484375,42.8797Q24.92722021484375,44.0283,22.64532021484375,46.859Q19.02542021484375,51.3473,19.65792021484375,56.7173C20.16292021484375,60.9906,22.32202021484375,64.5748,25.85932021484375,66.9091C28.70522021484375,68.7888,31.83902021484375,69.5719,35.17092021484375,68.653Z"
                  fill="#FA8500" fill-opacity="1"/>
        </g>
        <g>
            <path d="M37.10129956054688,28.1107212890625C34.95389956054687,26.6262212890625,33.467199560546874,24.3759212890625,32.579999560546874,21.841621289062502Q32.539799560546875,21.7279212890625,32.509199560546875,21.8440212890625Q31.459099560546875,25.7098212890625,28.101099560546874,27.9452212890625Q26.251099560546876,29.2272212890625,24.098969560546877,29.3878212890625C20.302099560546875,29.6719212890625,16.958319560546876,27.0906212890625,15.563709560546876,23.4817212890625C13.916589560546875,19.2232412890625,15.882271560546876,14.6485712890625,19.568219560546876,12.4402712890625C22.635909560546875,10.6024982890625,26.822099560546874,11.3830591890625,29.394299560546877,13.8704812890625Q31.525099560546874,15.9305612890625,32.447799560546876,18.6625212890625C32.45559956054687,18.6833912890625,32.47479956054687,18.6971312890625,32.49619956054687,18.6971312890625C32.51759956054687,18.6971312890625,32.536799560546875,18.6833912890625,32.54459956054687,18.6625212890625Q33.700799560546876,15.355021289062499,36.45939956054687,13.2480012890625C40.855699560546874,9.891101289062501,46.422299560546875,11.4077619890625,49.173799560546875,16.209691289062498C51.073399560546875,19.524601289062502,50.46929956054687,23.7781212890625,47.835799560546874,26.5101212890625C45.648299560546874,28.7801212890625,42.783599560546875,29.9954212890625,39.68519956054688,29.1531212890625Q38.45109956054688,28.8197212890625,37.10129956054688,28.1107212890625Z"
                  fill="#FFFFFF" fill-opacity="1"/>
        </g>
        <g>
            <path d="M37.101249995117186,28.110780390625Q35.296039995117184,30.640190390625,33.469579995117186,33.159700390625Q33.167529995117185,33.574700390625,32.76399999511719,33.893300390625Q32.60353999511719,34.019300390625,32.45015999511719,33.881000390625Q31.982919995117186,33.456100390625,31.57940999511719,32.880600390625Q29.868579995117187,30.425290390625,28.101119995117188,27.945280390625Q31.459059995117187,25.709820390625,32.50915999511719,21.844070390625Q32.53982999511719,21.727974190625,32.57994999511719,21.841597890625C33.46721999511719,24.375950390625,34.95386999511719,26.626230390625,37.101249995117186,28.110780390625Z"
                  fill="#535458" fill-opacity="1"/>
        </g>
        <g>
            <path d="M35.17092751464844,68.65293828125C31.83892751464844,69.57183828125,28.70521751464844,68.78883828125001,25.859347514648437,66.90903828125C22.32204751464844,64.57473828125,20.16287051464844,60.99063828125,19.657878114648437,56.71723828125Q19.025463514648436,51.34722828125,22.645327514648436,46.85899828125Q24.92723751464844,44.02823828125,27.770747514648438,42.87963028125Q33.266627514648434,40.65897828125,38.49582751464844,43.50703828125Q40.57482751464843,44.63835828125,42.200727514648435,46.56505828125Q45.73802751464844,50.75192828125,45.26602751464844,56.40353828125C44.94982751464843,60.219938281249995,43.35222751464843,63.87813828125,40.45442751464844,66.09383828125Q38.20092751464844,67.81553828125,35.17092751464844,68.65293828125ZM32.49262751464844,50.38633828125Q32.54692751464844,50.16896828125,32.617727514648436,50.37892828125C33.24772751464844,52.20683828125,35.21342751464844,53.99273828125,37.169727514648436,53.617238281249996C38.97022751464844,53.27393828125,41.11992751464844,51.18172828125,40.74942751464844,49.08211828125C40.61492751464844,48.32378828125,39.60962751464844,47.73095828125,39.03152751464844,47.30361828125C38.907327514648436,47.21196828125,38.73432751464844,47.27025828125,38.687027514648435,47.41971828125C38.23162751464844,48.80052828125,37.78322751464844,50.31470828125,35.97092751464844,49.51191828125Q34.01702751464844,48.64490828125,34.85712751464844,46.28098828125C34.92662751464844,46.08946828125,34.81352751464844,45.87877828125,34.621127514648435,45.84130828125Q32.47142751464844,45.41891828125,30.588327514648437,45.92281828125C30.420527514648438,45.96785828125,30.312427514648437,46.13757828125,30.338127514648438,46.31556828125C30.46562751464844,47.20728828125,30.958827514648437,48.032308281249996,30.224927514648435,48.79063828125Q29.17244751464844,49.87749828125,28.02087751464844,49.67741828125C27.086407514648435,49.51438828125,26.807957514648436,48.153348281250004,26.751327514648438,47.34314828125C26.742697514648437,47.21809828125,26.629837514648436,47.13036828125,26.512987514648437,47.15788828125C21.96807751464844,48.21509828125,26.173177514648437,55.161138281250004,29.899227514648437,53.34803828125Q31.303327514648437,52.66383828125,32.17642751464844,51.32992828125C32.36752751464844,51.040928281250004,32.410027514648434,50.71733828125,32.49262751464844,50.38633828125ZM32.55402751464844,60.49903828125Q32.63892751464844,60.294038281249996,32.714427514648435,60.50393828125C33.13682751464844,61.69463828125,33.90612751464844,62.72463828125,35.01992751464844,63.29773828125Q37.68882751464844,64.67353828125,39.91412751464844,62.11943828125Q41.19312751464844,60.65223828125,41.41492751464844,58.525438281250004C41.59422751464844,56.793838281250004,40.135927514648436,57.05813828125,39.09052751464844,57.14953828125C38.84322751464843,57.17053828125,38.63202751464844,57.34483828125,38.55482751464844,57.59173828125Q38.333027514648435,58.29073828125,38.318927514648436,59.07623828125C38.304727514648434,59.95063828125,37.32542751464844,60.23473828125,36.65522751464844,60.31873828125C35.48952751464844,60.466938281249995,34.49372751464844,59.08863828125,34.500827514648435,57.986938281250005C34.50202751464844,57.70473828125,34.34042751464844,57.45053828125,34.09252751464844,57.34463828125C33.43412751464844,57.06063828125,32.516227514648435,56.78393828125,31.815427514648437,57.12483828125Q31.324527514648437,57.36443828125,30.786527514648437,57.48053828125C30.645727514648435,57.50983828125,30.538527514648436,57.629038281250004,30.519827514648437,57.77693828125C30.451427514648437,58.295738281249996,30.510427514648438,58.87613828125,30.163527514648436,59.29363828125C29.531137514648435,60.061838281250004,28.07278751464844,60.69663828125,27.213847514648435,59.88893828125C26.609747514648436,59.320838281250005,26.671097514648437,58.30063828125,26.673447514648437,57.51263828125C26.674137514648436,57.36433828125,26.55168751464844,57.24763828125,26.409157514648438,57.26073828125Q25.675277514648435,57.32243828125,24.89891751464844,57.191538281250004C24.325497514648436,57.09523828125,23.542057514648437,57.31503828125,23.534967514648436,58.05603828125C23.48541751464844,63.46323828125,30.17772751464844,66.23713828125,32.55402751464844,60.49903828125Z"
                  fill="#FFFFFF" fill-opacity="1"/>
        </g>
        <g>
            <path d="M32.492680805664065,50.38638267578125C32.410080805664066,50.71738267578125,32.36760080566406,51.04097267578125,32.176460805664064,51.32997267578125Q31.303350805664063,52.663842675781254,29.899300805664062,53.34806267578125C26.173220805664062,55.16114267578125,21.968130805664064,48.21514267578125,26.513030805664062,47.15792267578125C26.62988080566406,47.13041267578125,26.742740805664063,47.21814267578125,26.751370805664063,47.34318267578125C26.80800080566406,48.15338267578125,27.086450805664064,49.51443267578125,28.020920805664062,49.67746267578125Q29.17249080566406,49.87754267578125,30.22495080566406,48.79068267578125C30.958830805664064,48.03235267578125,30.465640805664062,47.20733267578125,30.338210805664062,46.31561267578125C30.31250080566406,46.13761967578125,30.420580805664063,45.96790367578125,30.588350805664064,45.92286267578125Q32.47143080566406,45.41896267578125,34.62115080566406,45.84135167578125C34.813550805664065,45.87882467578125,34.92665080566406,46.08951067578125,34.85715080566406,46.28103467578125Q34.017080805664065,48.64495267578125,35.97095080566406,49.51196267578125C37.78325080566406,50.31475267578125,38.23165080566406,48.80056267578125,38.687050805664065,47.41976267578125C38.734350805664064,47.27030267578125,38.907350805664066,47.21200267578125,39.03155080566406,47.30366267578125C39.60975080566406,47.73100267578125,40.614950805664066,48.32382267578125,40.74945080566406,49.08216267578125C41.11995080566406,51.18176267578125,38.970250805664065,53.27396267578125,37.169750805664066,53.61731267578125C35.21345080566407,53.992772675781254,33.24780080566406,52.20687267578125,32.61774080566406,50.37897267578125Q32.54695080566406,50.16901267578125,32.492680805664065,50.38638267578125Z"
                  fill="#FA8500" fill-opacity="1"/>
        </g>
        <g>
            <path d="M32.553983227539064,60.49906412109375C30.177693227539063,66.23716412109376,23.48541102753906,63.46321412109375,23.534956881539063,58.05610412109375C23.542043087539064,57.31506812109375,24.325486227539063,57.09522312109375,24.898903227539062,57.19156212109375Q25.675263227539062,57.32248612109375,26.40914322753906,57.26073312109375C26.551673227539062,57.24763112109375,26.674133227539063,57.36436812109375,26.673443227539064,57.51267512109375C26.671093227539064,58.30064412109375,26.609733227539063,59.32081412109375,27.213833227539062,59.88895412109375C28.072773227539063,60.69667412109375,29.531123227539062,60.06184412109375,30.163533227539062,59.29364412109375C30.51041322753906,58.87619412109375,30.451423227539063,58.29571412109375,30.519863227539062,57.77698112109375C30.538513227539063,57.62905012109375,30.645743227539064,57.50985612109375,30.786503227539065,57.48057712109375Q31.324533227539064,57.36447412109375,31.815373227539062,57.12487912109375C32.51621322753906,56.78400012109375,33.43416322753906,57.06065292109375,34.092583227539066,57.34470812109375C34.34048322753906,57.45060512109375,34.50208322753906,57.70479512109375,34.50078322753906,57.98695412109375C34.493683227539066,59.08861412109375,35.48948322753906,60.46695412109375,36.65528322753906,60.31875412109375C37.325383227539064,60.23476412109375,38.30468322753906,59.95070412109375,38.31888322753906,59.076274121093746Q38.33308322753906,58.29077412109375,38.554883227539065,57.59172112109375C38.63198322753907,57.34484412109375,38.843183227539065,57.17056012109375,39.09048322753906,57.14957412109375C40.13588322753906,57.05818042109375,41.59418322753906,56.79387512109375,41.414883227539065,58.52543412109375Q41.19308322753906,60.65221412109375,39.91408322753907,62.11946412109375Q37.68878322753906,64.67358412109375,35.01988322753906,63.29772412109375C33.906083227539064,62.72465412109375,33.136833227539064,61.69461412109375,32.714443227539064,60.504014121093746Q32.63892322753907,60.29404412109375,32.553983227539064,60.49906412109375Z"
                  fill="#FA8500" fill-opacity="1"/>
        </g>
        <g>
            <path d="M42.6679,71.0836181640625C43.4277,71.8221991640625,43.9587,72.1235481640625,44.1428,73.2869781640625C44.1636,73.4108181640625,44.2635,73.5031081640625,44.3835,73.5092881640625Q46.0329,73.6006781640625,47.7013,73.6154981640625Q53.9452,73.6698481640625,62.7518,73.6278581640625C63.9435,73.6229181640625,65.0762,74.2453981640625,64.996,75.6632481640625C64.9394,76.6562281640625,64.0167,77.2540081640625,63.153,77.2564781640625Q53.4709,77.2688281640625,43.2059,77.1601381640625C42.6962,77.1551981640625,42.2762,77.5553581640625,41.8042,77.7282681640625Q41.0585,78.0024481640625,40.235,77.9999781640625C39.2675,77.9950481640625,38.3047,78.0246881640625,37.4103,77.6047581640625C36.8605,77.3453981640625,36.3886,76.9847581640625,35.7467,77.0094681640625Q32.3015,77.1428481640625,28.9813,77.1156781640625C28.2592,77.1107381640625,27.7967,77.6813381640625,27.1218,77.7974381640625Q25.4062,78.0889081640625,23.7355,77.8122581640625C23.1126,77.7084981640625,22.6359,77.2564781640625,21.961,77.2317681640625Q21.3404,77.2120081640625,20.7646,77.2144781640625Q11.7385,77.2515381640625,2.77139,77.2515381640625C2.13897,77.2515381640625,1.4806,77.3108181640625,0.907178,77.0316881640625C-0.249105,76.4635581640625,-0.265625,74.9098581640625,0.661761,74.1441081640625Q1.28238,73.6303181640625,2.10122,73.6352681640625Q9.37401,73.6871381640625,20.6466,73.5833881640625Q20.7669,73.5833881640625,20.7882,73.4574181640625Q21.0289,71.9753451640625,22.3102,71.1552614640625Q22.4707,71.1527889640625,22.6382,71.2095971640625Q24.6417,71.8814791640625,26.6569,72.5187581640625Q27.2516,72.7040181640625,27.8321,72.8102481640625C28.4739,72.9288081640625,29.1394,72.9955081640625,29.6821,73.3981281640625Q29.7789,73.4722381640625,29.9016,73.4747181640625Q32.3345,73.5463381640625,34.7627,73.4598781640625C34.9444,73.4524781640625,35.1049,73.4697681640625,35.2535,73.5883281640625Q35.3998,73.7093681640625,35.4565,73.5241081640625L35.5438,73.2351081640625Q35.5839,73.1066481640625,35.709,73.0720781640625Q36.7661,72.7880081640625,37.6534,72.6076981640625Q38.7625,72.3804381640625,39.5908,72.0988481640625Q41.1435,71.5751861640625,42.6679,71.0836181640625Z"
                  fill="#535458" fill-opacity="1"/>
        </g>
    </g>
</svg>